# xmcd
#
# Track frame offsets:
#	150
#	10238
#	23309
#	34625
#	45464
#	57183
#	68016
#	81759
#	92740
#	103982
#	115458
#	126757
#	138637
#	153241
#	165486
#	177574
#	192677
#	207108
#	219504
#	234473
#	247656
#
# Disc length: 3482 seconds
#
# Revision: 1
# Processed by: cddbd v1.5.2PL0 Copyright (c) Steve Scherf et al.
# Submitted via: audiograbber 1.83.01
#
DISCID=170d9815
DTITLE=Johnny 'guitar' Watson - The Chronological 1952 - 1955
DYEAR=1952
DGENRE=
TTITLE0=Motor Head Baby
TTITLE1=Stormy
TTITLE2=Just Won't Treat Me Rite
TTITLE3=No I Can't
TTITLE4=Motor Head Baby
TTITLE5=Highway 60
TTITLE6=Sad Fool
TTITLE7=I Got Eyes
TTITLE8=What's Goin' On
TTITLE9=Walkin' To My Baby
TTITLE10=Thinking
TTITLE11=Space Guitar
TTITLE12=Half Pint of Whiskey
TTITLE13=Gettin' Drunk
TTITLE14=You Can't Take It With You
TTITLE15=Hot Little Mama
TTITLE16=I Love To Love You
TTITLE17=Too Tired
TTITLE18=Don't Touch Me 
TTITLE19=Those Lonely Lonely Nights
TTITLE20=Someone Cares For Me
EXTD=
EXTT0=
EXTT1=
EXTT2=
EXTT3=
EXTT4=
EXTT5=
EXTT6=
EXTT7=
EXTT8=
EXTT9=
EXTT10=
EXTT11=
EXTT12=
EXTT13=
EXTT14=
EXTT15=
EXTT16=
EXTT17=
EXTT18=
EXTT19=
EXTT20=
PLAYORDER=
